<svg width="24" height="24" viewBox="0 0 24 24" fill="none" xmlns="http://www.w3.org/2000/svg">
<path opacity="0.4" d="M11.9991 21.9982C11.2301 21.9982 10.4621 21.7062 9.87511 21.1232L9.14511 20.3932C8.86211 20.1112 8.48311 19.9552 8.08111 19.9542H7.05411C5.39411 19.9542 4.04311 18.6032 4.04311 16.9432V15.9152C4.04211 15.5142 3.88611 15.1352 3.60311 14.8502L2.88511 14.1332C1.70911 12.9642 1.70411 11.0532 2.87411 9.87619L3.60411 9.14519C3.88611 8.86219 4.04211 8.48319 4.04311 8.08119V7.05519C4.04311 5.39419 5.39411 4.04319 7.05411 4.04319H8.08211C8.48311 4.04319 8.86111 3.88719 9.14611 3.60219L9.86511 2.88519C11.0341 1.70919 12.9441 1.70319 14.1221 2.87419L14.8521 3.60419C15.1361 3.88719 15.5141 4.04319 15.9151 4.04319H16.9431C18.6031 4.04319 19.9541 5.39419 19.9541 7.05519V8.08219C19.9551 8.48319 20.1111 8.86219 20.3941 9.14719L21.1121 9.86519C21.6811 10.4312 21.9961 11.1852 21.9991 11.9902C22.0011 12.7902 21.6931 13.5432 21.1321 14.1122C21.1221 14.1222 21.1131 14.1332 21.1031 14.1422L20.3931 14.8522C20.1111 15.1352 19.9551 15.5142 19.9541 15.9162V16.9432C19.9541 18.6032 18.6031 19.9542 16.9431 19.9542H15.9151C15.5141 19.9552 15.1351 20.1112 14.8511 20.3942L14.1321 21.1122C13.5461 21.7022 12.7721 21.9982 11.9991 21.9982Z" fill="#999FB2"/>
<path fill-rule="evenodd" clip-rule="evenodd" d="M10.0428 10.0509C9.8778 10.2159 9.6638 10.3049 9.4268 10.3049C9.2048 10.3049 8.9868 10.2139 8.8118 10.0499C8.6458 9.8849 8.5518 9.6589 8.5518 9.4299C8.5518 9.2119 8.6438 8.9879 8.8058 8.8149C8.8948 8.7249 9.0008 8.6569 9.1068 8.6209C9.4088 8.4829 9.8098 8.5639 10.0478 8.8139C10.1328 8.8989 10.1978 8.9919 10.2408 9.0889C10.2878 9.1929 10.3118 9.3109 10.3118 9.4299C10.3118 9.6679 10.2168 9.8889 10.0428 10.0509ZM15.1905 8.8098C14.8495 8.4698 14.2945 8.4698 13.9535 8.8098L8.8135 13.9498C8.4725 14.2908 8.4725 14.8458 8.8135 15.1878C8.9795 15.3528 9.1985 15.4438 9.4325 15.4438C9.6665 15.4438 9.8855 15.3528 10.0505 15.1878L15.1905 10.0478C15.5315 9.7058 15.5315 9.1518 15.1905 8.8098ZM14.9058 13.7639C14.5818 13.6279 14.1978 13.7019 13.9418 13.9579C13.8888 14.0199 13.8138 14.1159 13.7628 14.2289C13.7088 14.3509 13.7018 14.4819 13.7018 14.5699C13.7018 14.6579 13.7088 14.7879 13.7628 14.9099C13.8128 15.0219 13.8728 15.1129 13.9518 15.1919C14.1328 15.3599 14.3428 15.4449 14.5768 15.4449C14.7988 15.4449 15.0168 15.3549 15.1958 15.1879C15.3548 15.0289 15.4418 14.8089 15.4418 14.5699C15.4418 14.3299 15.3548 14.1109 15.1948 13.9509C15.1068 13.8639 15.0008 13.7959 14.9058 13.7639Z" fill="#999FB2"/>
</svg>
