<svg width="24" height="24" viewBox="0 0 24 24" fill="none" xmlns="http://www.w3.org/2000/svg">
<path opacity="0.4" d="M16.6756 2H7.33333C3.92889 2 2 3.92889 2 7.33333V16.6667C2 20.0711 3.92889 22 7.33333 22H16.6756C20.08 22 22 20.0711 22 16.6667V7.33333C22 3.92889 20.08 2 16.6756 2Z" fill="#306BDD"/>
<path d="M7.3687 9.36899C6.91537 9.36899 6.54204 9.74232 6.54204 10.2045V17.0757C6.54204 17.529 6.91537 17.9023 7.3687 17.9023C7.83093 17.9023 8.20426 17.529 8.20426 17.0757V10.2045C8.20426 9.74232 7.83093 9.36899 7.3687 9.36899Z" fill="#306BDD"/>
<path d="M12.0354 6.08899C11.582 6.08899 11.2087 6.46232 11.2087 6.92454V17.0757C11.2087 17.529 11.582 17.9023 12.0354 17.9023C12.4976 17.9023 12.8709 17.529 12.8709 17.0757V6.92454C12.8709 6.46232 12.4976 6.08899 12.0354 6.08899Z" fill="#306BDD"/>
<path d="M16.6399 12.9956C16.1777 12.9956 15.8044 13.369 15.8044 13.8312V17.0756C15.8044 17.529 16.1777 17.9023 16.631 17.9023C17.0932 17.9023 17.4666 17.529 17.4666 17.0756V13.8312C17.4666 13.369 17.0932 12.9956 16.6399 12.9956Z" fill="#306BDD"/>
</svg>
