<svg width="24" height="24" viewBox="0 0 24 24" fill="none" xmlns="http://www.w3.org/2000/svg">
<path d="M17.8166 14.5709C17.1594 14.431 16.6396 14.735 16.1793 15.0005C15.7078 15.274 14.8114 15.9985 14.2976 15.8121C11.667 14.734 9.19277 12.439 8.12173 9.80858C7.93296 9.28473 8.65675 8.38598 8.9293 7.91178C9.19378 7.45177 9.49258 6.92792 9.3563 6.26931C9.23315 5.67656 7.64022 3.65715 7.07694 3.10493C6.70546 2.74016 6.32489 2.53954 5.93423 2.5061C4.46647 2.4443 2.82509 4.39683 2.53739 4.86393C1.81664 5.85996 1.82168 7.18528 2.54951 8.79128C4.30597 13.1087 10.9492 19.6229 15.298 21.4386C16.1005 21.8125 16.8344 22 17.4936 22C18.1386 22 18.713 21.8206 19.2066 21.465C19.5791 21.2512 21.6192 19.5358 21.5657 18.0331C21.5334 17.6501 21.3336 17.2671 20.9712 16.8963C20.421 16.3298 18.4071 14.6955 17.8166 14.5709Z" fill="#306BDD"/>
<path opacity="0.4" d="M19.3372 5.91772L21.7408 3.50518C21.9083 3.33698 22.0002 3.11407 22.0002 2.87798C22.0002 2.64189 21.9083 2.41898 21.7408 2.25078C21.4066 1.91641 20.8262 1.91641 20.4921 2.25078L18.0885 4.66434L15.684 2.25078C15.3499 1.91641 14.7694 1.91641 14.4353 2.25078C14.2687 2.41898 14.1769 2.64189 14.1769 2.87798C14.1769 3.11407 14.2687 3.33698 14.4353 3.50518L16.8388 5.91772L14.4353 8.33027C14.2687 8.49847 14.1769 8.72138 14.1769 8.95747C14.1769 9.19356 14.2687 9.41647 14.4353 9.58467C14.7694 9.91904 15.3499 9.91904 15.684 9.58467L18.0885 7.17111L20.4921 9.58467C20.6596 9.75186 20.8807 9.84406 21.1169 9.84406C21.3531 9.84406 21.5742 9.75186 21.7408 9.58467C21.9083 9.41647 22.0002 9.19356 22.0002 8.95747C22.0002 8.72138 21.9083 8.49847 21.7408 8.33027L19.3372 5.91772Z" fill="#306BDD"/>
</svg>
