<svg width="24" height="24" viewBox="0 0 24 24" fill="none" xmlns="http://www.w3.org/2000/svg">
<path opacity="0.4" fill-rule="evenodd" clip-rule="evenodd" d="M15.858 7.55633C15.8762 7.68964 15.8934 7.81521 15.9025 7.98139L6.29019 17.5926H6.06788C4.6599 17.5926 3.63303 16.5976 3.44248 15.0522C3.23075 13.5068 3.2731 10.8605 3.44248 9.45271C3.64362 7.99197 4.72342 6.9864 6.06788 6.9864H7.8993L11.3928 4.12738C11.8162 3.76855 12.5679 3.42983 13.1501 3.41818C14.2087 3.41818 15.1827 4.16019 15.532 5.34572C15.6696 5.84215 15.7226 6.34071 15.7649 6.81598L15.8496 7.49448C15.8524 7.51539 15.8552 7.53595 15.858 7.55633ZM14.8809 13.7315C15.0248 13.5907 15.3435 13.4912 15.4874 13.5272C15.877 13.6267 15.9522 14.1845 15.9469 14.6228C15.9289 15.8951 15.8855 16.78 15.8177 17.3272L15.7701 17.7782L15.7693 17.7866C15.724 18.2402 15.6772 18.7096 15.5436 19.2103C15.19 20.3937 14.2446 21.1622 13.1712 21.1622C13.1352 21.1622 13.1002 21.1622 13.0642 21.1611C12.4714 21.1611 11.8267 20.8055 11.4615 20.4953L10.1604 19.4887C9.66711 19.1214 9.81214 18.5339 10.0895 18.1941C10.2966 17.9413 12.7844 15.658 14.0922 14.4577C14.5363 14.0502 14.8444 13.7675 14.8809 13.7315Z" fill="#306BDD"/>
<path d="M21.7275 3.26979C21.3538 2.90884 20.7801 2.91095 20.4201 3.27085L3.27035 20.4186C2.90936 20.7795 2.90936 21.3543 3.27352 21.7322C3.45984 21.9047 3.69062 22 3.92458 22C4.16383 22 4.40943 21.8994 4.57987 21.729L21.7286 4.58127C22.0906 4.21926 22.0906 3.63285 21.7275 3.26979Z" fill="#306BDD"/>
</svg>
