<svg width="24" height="24" viewBox="0 0 24 24" fill="none" xmlns="http://www.w3.org/2000/svg">
<path d="M9.82718 10.8014L7.14108 13.5558C5.3966 11.5739 3.95939 9.52074 3.27548 7.80304C2.56183 6.19713 2.55192 4.86566 3.26557 3.86959C3.5431 3.40205 5.15872 1.44041 6.59593 1.50139C6.98249 1.53188 7.35914 1.73516 7.71596 2.10106C8.27102 2.66008 9.83709 4.68271 9.95603 5.27221C10.0948 5.94304 9.79744 6.4614 9.53973 6.92894C9.27211 7.39648 8.55847 8.30107 8.74679 8.8296C9.02432 9.51058 9.39106 10.1712 9.82718 10.8014Z" fill="white"/>
<path d="M21.9493 17.0725C21.9989 18.5869 19.9967 20.3046 19.63 20.518C19.1443 20.8738 18.5793 21.0567 17.945 21.0567C17.3007 21.0567 16.5771 20.8738 15.7941 20.4977C13.9406 19.7049 11.651 18.0177 9.51993 16.0154L12.1862 13.2823C13.0089 13.9318 13.9009 14.4705 14.8128 14.8476C15.3183 15.0397 16.1906 14.3079 16.6564 14.0334C17.1124 13.7692 17.6179 13.4643 18.2621 13.6065C18.8469 13.7285 20.8194 15.3649 21.3645 15.9341C21.7213 16.3102 21.9097 16.6964 21.9493 17.0725Z" fill="white"/>
<path opacity="0.4" d="M21.3748 3.85931V3.86948L11.9586 13.5151L3.44438 22.2459C3.27588 22.4085 3.06774 22.5 2.84968 22.5C2.63162 22.5 2.42347 22.4085 2.24506 22.2459C1.96753 21.9511 1.92788 21.5141 2.1162 21.1888L2.14594 21.1482C2.16576 21.1167 2.18559 21.0872 2.21532 21.0567L20.1755 2.62948C20.3242 2.46685 20.5422 2.3642 20.7702 2.3642C20.9982 2.3642 21.2162 2.46685 21.3748 2.62948C21.7019 2.97505 21.7019 3.51374 21.3748 3.85931Z" fill="white"/>
</svg>
