<svg id="Calque_1" data-name="Calque 1" xmlns="http://www.w3.org/2000/svg" viewBox="0 0 398.87 176.57"><defs><style>.cls-1{fill:none;}.cls-2{fill:#fff;}</style></defs><path class="cls-1" d="M-78.48,285.31v-410h590v410ZM198.59,81.85c2.32,0,4.32,0,6.3,0a31,31,0,0,1,3.73.37,10.08,10.08,0,0,1,8.88,8.56,28.52,28.52,0,0,1,.54,5c.12,8.66.06,17.33.27,26a69.14,69.14,0,0,0,1.17,9.37c.1.62.94,1.57,1.45,1.58,6.21.11,12.42.07,18.52.07-.52-2.93-1.32-5.6-1.4-8.29-.29-10-.21-20-.53-30-.21-6.49-1.38-12.86-6.08-17.8-1.89-2-4.35-3.44-6.69-5.23,6.91-3.23,10.74-8.92,11.91-16.2a81.84,81.84,0,0,0-.27-29.32c-1.74-8.58-7.08-14.42-15.76-16.64A42.81,42.81,0,0,0,211,7.83c-10.08-.2-20.16-.11-30.24-.11a12.3,12.3,0,0,0-1.63.2V132.57h19.42ZM361.45,81c0,8.71,0,17,0,25.36a8.6,8.6,0,0,1-.24,1.48c-1,5.64-4.05,8.33-9.67,8.41s-8.91-2.57-10-8.09a24.77,24.77,0,0,1-.41-4.71q0-33.12,0-66.24a26.23,26.23,0,0,1,.9-6.64c1.08-4,4-6.13,8.28-6.31,5.43-.22,8.61,1.37,10,5.6a28.42,28.42,0,0,1,1.17,7.59c.18,4.05,0,8.12,0,12.26h18.93c-.5-7.41-.41-14.71-1.61-21.78-1.86-11-8.4-18.34-19.66-20.59a48,48,0,0,0-11.15-.87c-13.25.49-22,7.43-25.18,20.16A52.83,52.83,0,0,0,321.64,39c-.12,20.33-.08,40.66,0,61a80.75,80.75,0,0,0,.52,10c1.34,10.27,5.93,18.39,16.08,22.23a36.54,36.54,0,0,0,21.39,1.15c8-1.82,14.16-6.22,17.16-13.86a44.52,44.52,0,0,0,3.12-14.51c.43-13.4.17-26.82.18-40.23,0-.4-.05-.8-.09-1.29H352.72V81Zm-96-73.13q-10,62.42-20,124.77h18c.9-6,1.79-11.86,2.64-17.71.67-4.69.64-4.7,5.27-4.7h19.59c1.15,7.62,2.27,15,3.4,22.47h19.71q-10-62.5-20-124.83ZM137.22,25.49h32V7.89H117.72V132.58h19.46V81.14h25.17v-18H137.22Zm-40.37,50c-1.38,0-2.53,0-3.68,0-4.36.07-4.44.34-4.32,4.77.15,6,0,11.93,0,17.89,0,5.7,0,11.4,0,17.37h8ZM43.11,122.6V82.47c-2.07,0-4,0-5.86,0-1.43,0-1.84.58-1.8,2,.1,3.57,0,7.16.06,10.73,0,8.16.06,16.32,0,24.48,0,2.29.73,3.2,3,3C40,122.49,41.45,122.6,43.11,122.6ZM63.34,48.79c-1.86,0-3.43.07-5,0-2.19-.12-2.88.88-2.85,3,.1,6.67,0,13.33,0,20,0,4.75-.06,9.5.06,14.25,0,.86.76,2.35,1.32,2.42a47.23,47.23,0,0,0,6.43.12Zm-13.2,73.77a57.48,57.48,0,0,0,6.22-.08,2.34,2.34,0,0,0,1.57-1.68q.16-11.46,0-22.92a2.56,2.56,0,0,0-1.69-1.81,49.32,49.32,0,0,0-6-.09c0,.6-.11,1-.11,1.4C50.14,105.67,50.14,114,50.14,122.56Zm294,31.7a54.58,54.58,0,0,0-.45-6.27c-.46-2.49-2.09-3.44-4.76-3.25a3.82,3.82,0,0,0-3.88,4c-.11,3.81-.12,7.63,0,11.44a4.4,4.4,0,0,0,8.71.43C344.09,158.58,344.06,156.49,344.18,154.26Zm-204.7-9.53c-.07,1-.16,1.68-.16,2.33,0,5.15,0,10.3.07,15.45,0,.5.91,1,1.4,1.48.48-.5,1.35-1,1.39-1.49.17-2,.07-4.08.07-6.52,5.31,1.2,2,5.64,3.75,8l2.81-.15c-.46-3.23-.89-6.23-1.41-9.92,1.4-1.74,1.58-4.74.1-7.31C145.77,143.6,142.43,145.18,139.48,144.73Zm158.1,6.42c-.18-1.33-.25-2.4-.47-3.43-.5-2.28-2.17-3-4.27-3s-3.93,1.05-4,3.21a111.55,111.55,0,0,0,0,12.93c.12,2.15,1.87,3.3,4,3.34s4.1-.85,4.37-3.2a66,66,0,0,0,.07-7.58h-4.05c.08.85-.09,2,.23,2.19,1.71.79,1.1,2.22,1.16,3.43.06,1,.26,2.55-1.36,2.25-.7-.13-1.58-1.5-1.65-2.36a68.52,68.52,0,0,1-.06-8c.05-1.35-.62-3.49,1.64-3.48s1.2,2.13,1.52,3.36c0,.07.09.13.23.31Zm22.25,2.65c1.12-1.5,1.69-5.42.19-7.25-2.18-2.67-5.23-1.49-8.16-1.76,0,6.13,0,11.86.06,17.6,0,.53.84,1.06,1.28,1.59.53-.53,1.46-1,1.51-1.61.19-2,.07-4.05.07-6.52,4.89,1.56,2,5.58,3.52,8h2.89C320.74,160.55,320.34,157.55,319.83,153.8Zm-283-91.73v13c2.2,0,4.19,0,6.17,0,1.38,0,1.94-.68,1.93-2,0-2.9.08-5.81-.07-8.71a2.52,2.52,0,0,0-1.38-1.89C41.33,62.18,39.1,62.19,36.86,62.07ZM189,163.84c-1-6.46-2-12.7-3-18.86h-4.41c-1,6.36-2,12.55-3.13,19.63,1.41-.8,2.85-1.21,2.88-1.71.23-3.14,2.18-2.44,4-2.2l.9,3.31Zm175.34-18.91c0,4.86.07,9.44-.06,14,0,.85-.88,1.67-1.35,2.51a19.34,19.34,0,0,1-1.76-2.49,4.32,4.32,0,0,1,0-1.73V145h-2.64c0,5.39-.12,10.62.05,15.83.07,2.4,1.95,3.35,4.15,3.42s4.11-1.13,4.21-3.39c.24-5.29.08-10.58.08-15.92ZM76.72,122.56v-13a11.78,11.78,0,0,0-1.36-.08c-7.32.21-6.36-.93-6.29,6.17C69.15,123.56,67.33,122.6,76.72,122.56Zm-60-27a57.43,57.43,0,0,0,6.17-.45,2.43,2.43,0,0,0,1.53-1.76,81.34,81.34,0,0,0,0-9,2.4,2.4,0,0,0-1.48-1.78,58.41,58.41,0,0,0-6.23-.08ZM70.29,89v13a55.11,55.11,0,0,0,6.06-.08,2.36,2.36,0,0,0,1.57-1.67c.16-3.07.14-6.15,0-9.22a2.27,2.27,0,0,0-1.4-1.63C74.51,89.17,72.45,89.17,70.29,89Zm182.33,67.47c.72,2.18,1.37,3.77,1.74,5.42.51,2.22,1.75,2.45,4,1.61-3.5-6.15-4-12.34-.18-18.38-2.28-.81-3.13-.1-3.55,1.62s-1,3.14-1.75,5.25c-.59-2-1.07-3.32-1.37-4.69-.47-2.15-1.48-3.21-4.17-2.13,4,6.07,3.41,12.27-.06,18.33,2.16.88,3,.34,3.5-1.45S251.87,158.7,252.62,156.51Zm132,.43c6.27-.26,6.26-3.37,5.82-8.11-.34-3.67-3-4.72-8.65-3.74v18.77h2.83ZM225.7,144.89V164c2.09,0,4.07-.07,6,0,2.13.08,2.29-.94,1.7-2.79h-4.76V155.8l3.95-.25c-.07-1-.13-1.75-.19-2.56l-3.77-.22v-5.1l5.11-.36-.21-2.42Zm-22.86.11c0,5.91,0,11.71.06,17.51,0,.5.92,1,1.41,1.48.48-.5,1.33-1,1.38-1.49.18-1.85.07-3.73.07-5.54,5.41-.53,6.41-1.91,5.88-7.57C211.26,145.29,209.51,144.36,202.84,145Zm-77.52,2.4v-2.46h-7.58V164l2.82-.14v-7.54l3.87-.3-.19-2.52-3.58-.22v-5.65ZM9.78,109.66v12.75c3.54.41,3.72.26,3.74-3q0-3.36,0-6.71C13.5,109.39,13.29,109.22,9.78,109.66Zm12.94,12.87v-13c-3.6-.24-3.68-.17-3.69,3.21,0,2.16,0,4.31,0,6.47C19,122.65,19.08,122.69,22.72,122.53Z"/><path d="M198.59,81.85v50.72H179.17V7.92a12.3,12.3,0,0,1,1.63-.2c10.08,0,20.16-.09,30.24.11a42.81,42.81,0,0,1,9.59,1.47c8.68,2.22,14,8.06,15.76,16.64a81.84,81.84,0,0,1,.27,29.32c-1.17,7.28-5,13-11.91,16.2,2.34,1.79,4.8,3.24,6.69,5.23,4.7,4.94,5.87,11.31,6.08,17.8.32,10,.24,20,.53,30,.08,2.69.88,5.36,1.4,8.29-6.1,0-12.31,0-18.52-.07-.51,0-1.35-1-1.45-1.58a69.14,69.14,0,0,1-1.17-9.37c-.21-8.66-.15-17.33-.27-26a28.52,28.52,0,0,0-.54-5,10.08,10.08,0,0,0-8.88-8.56,31,31,0,0,0-3.73-.37C202.91,81.8,200.91,81.85,198.59,81.85ZM198.65,64c3,0,5.85.13,8.66,0,6.36-.34,9.93-3.24,10.33-9.59a172.08,172.08,0,0,0-.21-21.18A7.25,7.25,0,0,0,211.15,26c-4.07-.59-8.24-.49-12.5-.69Z"/><path d="M361.45,81h-8.73V63.39H380c0,.49.09.89.09,1.29,0,13.41.25,26.83-.18,40.23a44.52,44.52,0,0,1-3.12,14.51c-3,7.64-9.16,12-17.16,13.86a36.54,36.54,0,0,1-21.39-1.15c-10.15-3.84-14.74-12-16.08-22.23a80.75,80.75,0,0,1-.52-10c-.05-20.33-.09-40.66,0-61a52.83,52.83,0,0,1,1.28-12.37c3.19-12.73,11.93-19.67,25.18-20.16a48,48,0,0,1,11.15.87c11.26,2.25,17.8,9.57,19.66,20.59,1.2,7.07,1.11,14.37,1.61,21.78H361.59c0-4.14.14-8.21,0-12.26a28.42,28.42,0,0,0-1.17-7.59c-1.41-4.23-4.59-5.82-10-5.6-4.24.18-7.2,2.29-8.28,6.31a26.23,26.23,0,0,0-.9,6.64q-.09,33.12,0,66.24a24.77,24.77,0,0,0,.41,4.71c1.05,5.52,4.39,8.18,10,8.09s8.71-2.77,9.67-8.41a8.6,8.6,0,0,0,.24-1.48C361.46,98,361.45,89.66,361.45,81Z"/><path d="M265.42,7.82h28.67q10,62.4,20,124.83H294.34c-1.13-7.47-2.25-14.85-3.4-22.47H271.35c-4.63,0-4.6,0-5.27,4.7-.85,5.85-1.74,11.7-2.64,17.71h-18Q255.45,70.16,265.42,7.82ZM279,30.22l-.53,0c-3.06,20.92-6.11,41.83-9.18,62.86h18.9C285.13,72,282.07,51.1,279,30.22Z"/><path d="M137.22,25.49V63.18h25.13v18H137.18v51.44H117.72V7.89h51.52v17.6Z"/><path d="M96.85,75.45v40h-8c0-6,0-11.67,0-17.37,0-6,.15-11.93,0-17.89-.12-4.43,0-4.7,4.32-4.77C94.32,75.43,95.47,75.45,96.85,75.45Z"/><path d="M43.11,122.6c-1.66,0-3.15-.11-4.61,0-2.3.21-3.06-.7-3-3,.1-8.16,0-16.32,0-24.48,0-3.57,0-7.16-.06-10.73,0-1.39.37-2,1.8-2,1.89.06,3.79,0,5.86,0Z"/><path d="M63.34,48.79V88.57a47.23,47.23,0,0,1-6.43-.12c-.56-.07-1.29-1.56-1.32-2.42-.12-4.75-.06-9.5-.06-14.25,0-6.67.06-13.33,0-20,0-2.12.66-3.12,2.85-3C59.91,48.86,61.48,48.79,63.34,48.79Z"/><path d="M50.14,122.56c0-8.59,0-16.89,0-25.18,0-.4.06-.8.11-1.4a49.32,49.32,0,0,1,6,.09,2.56,2.56,0,0,1,1.69,1.81q.18,11.46,0,22.92a2.34,2.34,0,0,1-1.57,1.68A57.48,57.48,0,0,1,50.14,122.56Z"/><path d="M344.18,154.26c-.12,2.23-.09,4.32-.39,6.35a4.4,4.4,0,0,1-8.71-.43c-.11-3.81-.1-7.63,0-11.44a3.82,3.82,0,0,1,3.88-4c2.67-.19,4.3.76,4.76,3.25A54.58,54.58,0,0,1,344.18,154.26Zm-6.19.16h0c0,1.74-.11,3.49.06,5.22.06.64.79,1.22,1.22,1.83.59-.56,1.67-1.1,1.7-1.68.15-3.55.15-7.12,0-10.68,0-.6-1.05-1.15-1.62-1.73-.45.61-1.21,1.18-1.27,1.83A50.24,50.24,0,0,0,338,154.42Z"/><path d="M139.48,144.73c3,.45,6.29-1.13,8,1.88,1.48,2.57,1.3,5.57-.1,7.31.52,3.69.95,6.69,1.41,9.92L146,164c-1.77-2.37,1.56-6.81-3.75-8,0,2.44.1,4.49-.07,6.52,0,.53-.91,1-1.39,1.49-.49-.5-1.39-1-1.4-1.48-.11-5.15-.07-10.3-.07-15.45C139.32,146.41,139.41,145.75,139.48,144.73Zm2.91,9c1.11-.46,2.41-.66,2.5-1.09a11.52,11.52,0,0,0,0-4.34c-.08-.41-1.42-.58-2.46-1Z"/><path d="M297.58,151.15h-2.7c-.14-.18-.21-.24-.23-.31-.32-1.23.61-3.35-1.52-3.36s-1.59,2.13-1.64,3.48a68.52,68.52,0,0,0,.06,8c.07.86.95,2.23,1.65,2.36,1.62.3,1.42-1.21,1.36-2.25-.06-1.21.55-2.64-1.16-3.43-.32-.15-.15-1.34-.23-2.19h4.05a66,66,0,0,1-.07,7.58c-.27,2.35-2.17,3.25-4.37,3.2s-3.9-1.19-4-3.34a111.55,111.55,0,0,1,0-12.93c.12-2.16,1.83-3.23,4-3.21s3.77.71,4.27,3C297.33,148.75,297.4,149.82,297.58,151.15Z"/><path d="M319.83,153.8c.51,3.75.91,6.75,1.36,10H318.3c-1.51-2.38,1.37-6.4-3.52-8,0,2.47.12,4.51-.07,6.52,0,.58-1,1.08-1.51,1.61-.44-.53-1.27-1.06-1.28-1.59-.1-5.74-.06-11.47-.06-17.6,2.93.27,6-.91,8.16,1.76C321.52,148.38,321,152.3,319.83,153.8Zm-4.89-.18c1-.38,2.36-.54,2.44-1a11.32,11.32,0,0,0,0-4.34c-.08-.43-1.41-.61-2.45-1Z"/><path d="M36.86,62.07c2.24.12,4.47.11,6.65.44a2.52,2.52,0,0,1,1.38,1.89c.15,2.9,0,5.81.07,8.71,0,1.32-.55,2-1.93,2-2,0-4,0-6.17,0Z"/><path d="M189,163.84l-2.76.17-.9-3.31c-1.84-.24-3.79-.94-4,2.2,0,.5-1.47.91-2.88,1.71,1.13-7.08,2.12-13.27,3.13-19.63H186C187,151.14,188,157.38,189,163.84Zm-5.12-14.23-.47-.05c-.38,2.71-.76,5.42-1.18,8.37l2.81-.21C184.65,154.84,184.27,152.23,183.9,149.61Z"/><path d="M364.36,144.93H367c0,5.34.16,10.63-.08,15.92-.1,2.26-1.92,3.46-4.21,3.39s-4.08-1-4.15-3.42c-.17-5.21-.05-10.44-.05-15.83h2.64v12.24a4.32,4.32,0,0,0,0,1.73,19.34,19.34,0,0,0,1.76,2.49c.47-.84,1.32-1.66,1.35-2.51C364.43,154.37,364.36,149.79,364.36,144.93Z"/><path d="M76.72,122.56c-9.39,0-7.57,1-7.65-7-.07-7.1-1-6,6.29-6.17a11.78,11.78,0,0,1,1.36.08Z"/><path d="M16.7,95.54v-13a58.41,58.41,0,0,1,6.23.08,2.4,2.4,0,0,1,1.48,1.78,81.34,81.34,0,0,1,0,9,2.43,2.43,0,0,1-1.53,1.76A57.43,57.43,0,0,1,16.7,95.54Z"/><path d="M70.29,89c2.16.13,4.22.13,6.23.43a2.27,2.27,0,0,1,1.4,1.63c.14,3.07.16,6.15,0,9.22A2.36,2.36,0,0,1,76.35,102a55.11,55.11,0,0,1-6.06.08Z"/><path d="M252.62,156.51c-.75,2.19-1.46,3.85-1.88,5.58s-1.34,2.33-3.5,1.45c3.47-6.06,4-12.26.06-18.33,2.69-1.08,3.7,0,4.17,2.13.3,1.37.78,2.7,1.37,4.69.72-2.11,1.35-3.65,1.75-5.25s1.27-2.43,3.55-1.62c-3.82,6-3.32,12.23.18,18.38-2.21.84-3.45.61-4-1.61C254,160.28,253.34,158.69,252.62,156.51Z"/><path d="M384.61,156.94v6.92h-2.83V145.09c5.63-1,8.31.07,8.65,3.74C390.87,153.57,390.88,156.68,384.61,156.94Zm0-2.28c1.32-.83,2.75-1.31,2.76-1.8a11.64,11.64,0,0,0-.88-5.06c-.34-.71-1.89-.45-1.88,1.11S384.65,152.06,384.65,154.66Z"/><path d="M225.7,144.89h7.87l.21,2.42-5.11.36v5.1l3.77.22c.06.81.12,1.59.19,2.56l-3.95.25v5.44h4.76c.59,1.85.43,2.87-1.7,2.79-2-.09-4,0-6,0Z"/><path d="M202.84,145c6.67-.64,8.42.29,8.8,4.39.53,5.66-.47,7-5.88,7.57,0,1.81.11,3.69-.07,5.54-.05.53-.9,1-1.38,1.49-.49-.49-1.4-1-1.41-1.48C202.8,156.71,202.84,150.91,202.84,145Zm2.94,8.77.62.55c.79-.57,2.22-1.12,2.24-1.72a10.33,10.33,0,0,0-.93-4.8c-.34-.67-1.92-.55-1.93,1Z"/><path d="M125.32,147.4l-4.66.23v5.65l3.58.22.19,2.52-3.87.3v7.54l-2.82.14V144.94h7.58Z"/><path d="M9.78,109.66c3.51-.44,3.72-.27,3.74,3q0,3.35,0,6.71c0,3.29-.2,3.44-3.74,3Z"/><path d="M22.72,122.53c-3.64.16-3.68.12-3.69-3.29,0-2.16,0-4.31,0-6.47,0-3.38.09-3.45,3.69-3.21Z"/><path class="cls-2" d="M198.65,64V25.33c4.26.2,8.43.1,12.5.69a7.25,7.25,0,0,1,6.28,7.15,172.08,172.08,0,0,1,.21,21.18c-.4,6.35-4,9.25-10.33,9.59C204.5,64.09,201.68,64,198.65,64Z"/><path class="cls-2" d="M279,30.22c3.05,20.88,6.11,41.76,9.19,62.84h-18.9c3.07-21,6.12-41.94,9.18-62.86Z"/><path class="cls-2" d="M338,154.42a50.24,50.24,0,0,1,.07-5.21c.06-.65.82-1.22,1.27-1.83.57.58,1.6,1.13,1.62,1.73.16,3.56.16,7.13,0,10.68,0,.58-1.11,1.12-1.7,1.68-.43-.61-1.16-1.19-1.22-1.83-.17-1.73-.06-3.48-.06-5.22Z"/><path class="cls-2" d="M142.39,153.72v-6.39c1,.38,2.38.55,2.46,1a11.52,11.52,0,0,1,0,4.34C144.8,153.06,143.5,153.26,142.39,153.72Z"/><path class="cls-2" d="M314.94,153.62V147.3c1,.41,2.37.59,2.45,1a11.32,11.32,0,0,1,0,4.34C317.3,153.08,316,153.24,314.94,153.62Z"/><path class="cls-2" d="M183.9,149.61c.37,2.62.75,5.23,1.16,8.11l-2.81.21c.42-3,.8-5.66,1.18-8.37Z"/><path class="cls-2" d="M384.65,154.66c0-2.6,0-4.17,0-5.75s1.54-1.82,1.88-1.11a11.64,11.64,0,0,1,.88,5.06C387.4,153.35,386,153.83,384.65,154.66Z"/><path class="cls-2" d="M205.78,153.77v-4.92c0-1.6,1.59-1.72,1.93-1a10.33,10.33,0,0,1,.93,4.8c0,.6-1.45,1.15-2.24,1.72Z"/></svg>